<?xml version="1.0" encoding="utf-8"?>
<!-- Generator: Adobe Illustrator 17.0.0, SVG Export Plug-In . SVG Version: 6.00 Build 0)  -->
<!DOCTYPE svg PUBLIC "-//W3C//DTD SVG 1.1//EN" "http://www.w3.org/Graphics/SVG/1.1/DTD/svg11.dtd">
<svg version="1.1" id="Layer_1" xmlns="http://www.w3.org/2000/svg" xmlns:xlink="http://www.w3.org/1999/xlink" x="0px" y="0px"
	 width="100px" height="36.454px" viewBox="0 0 100 36.454" enable-background="new 0 0 100 36.454" xml:space="preserve">
<g>
	<g>
		<g>
			<path fill="#AD1746" d="M99.432,13.258c-0.579-0.106-1.196-0.16-1.852-0.16c-0.93,0-1.769,0.137-2.515,0.412
				c-0.747,0.274-1.406,0.66-1.978,1.155c-0.572,0.495-1.052,1.082-1.44,1.76s-0.697,1.429-0.926,2.252v16.986h-2.721V10.926h2.675
				l0.046,3.932c0.67-1.356,1.581-2.427,2.731-3.212c1.15-0.785,2.564-1.177,4.241-1.177c0.335,0,0.678,0.031,1.028,0.091
				c0.351,0.062,0.609,0.13,0.777,0.206L99.432,13.258z"/>
		</g>
	</g>
	<g>
		<g>
			<path fill="#75D2E7" d="M20.146,23.181c0,1.8-0.203,3.444-0.608,4.934c-0.406,1.49-1,2.77-1.781,3.839
				c-0.782,1.069-1.741,1.902-2.876,2.5c-1.136,0.597-2.426,0.896-3.872,0.896c-1.755,0-3.256-0.332-4.502-0.995
				c-1.247-0.664-2.268-1.571-3.064-2.722l-0.11,3.274H0.854V0.924h2.633v13.518c0.796-1.239,1.807-2.201,3.031-2.887
				c1.224-0.686,2.707-1.028,4.447-1.028c1.46,0,2.758,0.288,3.894,0.863s2.098,1.394,2.887,2.456s1.386,2.342,1.792,3.838
				c0.406,1.497,0.608,3.175,0.608,5.033V23.181z M17.492,22.716c0-1.386-0.133-2.685-0.398-3.894
				c-0.265-1.209-0.682-2.257-1.25-3.142c-0.568-0.885-1.294-1.582-2.179-2.091c-0.885-0.509-1.947-0.763-3.186-0.763
				c-1.003,0-1.888,0.136-2.655,0.409c-0.767,0.273-1.431,0.638-1.991,1.095c-0.561,0.457-1.033,0.981-1.416,1.571
				c-0.384,0.59-0.693,1.202-0.929,1.836v10.796c0.28,0.635,0.63,1.229,1.051,1.781s0.918,1.032,1.494,1.438
				c0.575,0.405,1.235,0.723,1.98,0.951c0.745,0.229,1.582,0.343,2.511,0.343c1.195,0,2.231-0.251,3.108-0.752
				c0.877-0.502,1.604-1.195,2.179-2.08c0.576-0.885,1-1.928,1.272-3.131c0.272-1.201,0.409-2.503,0.409-3.904V22.716z"/>
			<path fill="#75D2E7" d="M35.257,35.349c-1.563,0-3.001-0.291-4.314-0.874c-1.313-0.582-2.445-1.394-3.396-2.434
				c-0.952-1.04-1.693-2.274-2.224-3.706c-0.531-1.43-0.796-3.001-0.796-4.712v-0.951c0-1.844,0.276-3.514,0.83-5.011
				s1.301-2.773,2.246-3.828c0.944-1.054,2.032-1.869,3.263-2.444s2.533-0.863,3.905-0.863c1.519,0,2.869,0.273,4.049,0.818
				c1.18,0.546,2.171,1.305,2.976,2.279c0.804,0.974,1.412,2.131,1.825,3.474s0.62,2.81,0.62,4.402v1.615H27.16v0.509
				c0,1.313,0.199,2.548,0.597,3.706c0.398,1.158,0.958,2.164,1.682,3.02c0.722,0.855,1.585,1.53,2.588,2.024
				c1.003,0.494,2.116,0.741,3.341,0.741c1.416,0,2.666-0.258,3.75-0.774c1.084-0.516,2.068-1.342,2.954-2.478l1.659,1.261
				c-0.398,0.575-0.859,1.121-1.383,1.637c-0.524,0.517-1.132,0.967-1.825,1.35c-0.693,0.384-1.475,0.687-2.345,0.907
				C37.307,35.238,36.334,35.349,35.257,35.349z M34.771,12.782c-1.003,0-1.932,0.192-2.788,0.575
				c-0.855,0.384-1.611,0.929-2.268,1.637s-1.195,1.56-1.615,2.555c-0.42,0.996-0.704,2.099-0.852,3.308h14.358V20.57
				c-0.03-1.003-0.192-1.973-0.487-2.91c-0.295-0.937-0.727-1.766-1.294-2.489c-0.568-0.723-1.272-1.302-2.113-1.737
				C36.873,13,35.892,12.782,34.771,12.782z"/>
			<path fill="#75D2E7" d="M56.917,20.681l6.46-9.712h3.142l-8.119,11.748l8.474,12.19h-3.12l-6.814-10.133l-6.814,10.133h-3.12
				l8.453-12.19l-8.121-11.748h3.12L56.917,20.681z"/>
			<path fill="#75D2E7" d="M75.546,4.84v6.128h4.956v2.168h-4.956v15.952c0,0.841,0.085,1.516,0.255,2.024
				c0.169,0.509,0.397,0.907,0.686,1.194c0.287,0.288,0.619,0.479,0.995,0.575s0.771,0.144,1.184,0.144
				c0.398,0,0.782-0.025,1.15-0.077c0.369-0.052,0.701-0.1,0.996-0.144l0.11,2.168c-0.324,0.118-0.749,0.21-1.272,0.276
				s-1.043,0.1-1.56,0.1c-0.752,0-1.449-0.1-2.091-0.299s-1.19-0.542-1.647-1.028c-0.458-0.487-0.815-1.132-1.073-1.937
				c-0.259-0.804-0.388-1.803-0.388-2.997V13.136h-4.402v-2.168h4.402V4.84H75.546z"/>
		</g>
	</g>
</g>
</svg>
