<?xml version="1.0" encoding="utf-8"?>
<!-- Generator: Adobe Illustrator 17.0.0, SVG Export Plug-In . SVG Version: 6.00 Build 0)  -->
<!DOCTYPE svg PUBLIC "-//W3C//DTD SVG 1.1//EN" "http://www.w3.org/Graphics/SVG/1.1/DTD/svg11.dtd">
<svg version="1.1" xmlns="http://www.w3.org/2000/svg" xmlns:xlink="http://www.w3.org/1999/xlink" x="0px" y="0px" width="50px"
	 height="50px" viewBox="0 0 50 50" enable-background="new 0 0 50 50" xml:space="preserve">
<g id="Layer_2" display="none">
	<rect x="-9.956" y="-19.579" display="inline" fill="#444444" width="70.879" height="77.541"/>
</g>
<g id="Layer_1" display="none">
	<g display="inline">
		<path fill="#C2C2C2" d="M22.944,24.958c0,3.925-0.003,7.851,0.001,11.776c0.002,1.989-1.097,3.142-3.096,3.268
			c2.971,0.565,5.942,1.13,8.913,1.696c-0.892-0.393-1.649-0.956-2.227-1.748c-0.536-0.735-0.852-1.544-0.848-2.466
			c0.02-4.854,0.036-9.707,0.059-14.561c0.006-1.307,0.017-1.315,1.284-1.16c2.034,0.248,4.065,0.518,6.1,0.754
			c0.363,0.042,0.456,0.167,0.445,0.52c-0.071,2.376-0.111,4.754-0.186,7.13c-0.012,0.382,0.066,0.529,0.473,0.585
			c1.329,0.182,2.651,0.418,3.977,0.632c0.146,0.023,0.289,0.04,0.414,0.134c1.371,1.027,2.389,2.283,2.614,4.047
			c0.176,1.383-0.265,2.588-1.127,3.645c-1.148,1.408-2.619,2.421-4.188,3.294c-2.851,1.586-5.889,2.613-9.141,2.976
			c-0.193,0.021-0.365,0.084-0.478-0.176c-0.038-0.088-0.26-0.108-0.402-0.137c-2.855-0.596-5.709-1.196-8.567-1.774
			c-0.461-0.093-0.77-0.274-1.023-0.703c-1.612-2.739-0.813-5.632,1.572-7.689c1.431-1.234,3.106-2.066,4.843-2.768
			c0.397-0.161,0.546-0.346,0.532-0.781c-0.034-1.081-0.011-2.164-0.011-3.247c0-1.082,0-2.165,0-3.247
			C22.899,24.958,22.921,24.958,22.944,24.958z"/>
		<path fill="#C2C2C2" d="M1.075,18.325c-0.297-0.003-0.403-0.147-0.437-0.366c-0.005-0.032-0.007-0.065-0.012-0.098
			c-0.204-1.573-0.202-1.567,1.25-2.167c7.294-3.016,14.589-6.029,21.874-9.066c0.841-0.35,1.66-0.482,2.57-0.397
			c4.341,0.405,8.687,0.763,13.031,1.142c3.33,0.291,6.658,0.596,9.988,0.878c0.355,0.03,0.439,0.145,0.467,0.499
			c0.055,0.686-0.181,1.142-0.714,1.591c-4.568,3.842-9.035,7.799-13.453,11.812c-0.251,0.228-0.544,0.38-0.86,0.451
			c-0.249,0.055-0.548,0.079-0.776-0.01c-0.322-0.125,0.018-0.408-0.047-0.626c-0.049-0.166-0.008-0.358-0.008-0.538
			c0.001-0.848-0.001-0.836-0.84-0.942c-3.038-0.383-6.073-0.787-9.112-1.16c-5.45-0.667-10.902-1.319-16.353-1.973
			c-2.099-0.252-4.201-0.483-6.298-0.75c-0.402-0.051-0.504,0.024-0.456,0.431C0.941,17.456,0.939,17.882,1.075,18.325z
			 M30.609,10.169c-0.079,0.107-0.096,0.281,0.063,0.214c0.523-0.222,1.051-0.453,1.447-0.911c-0.507,0.246-1.013,0.492-1.52,0.739
			c0.188-0.311,0.632-0.294,0.801-0.638c-0.625,0.237-1.202,0.555-1.737,0.976c0.24-0.005,0.627,0.193,0.657-0.087
			C30.35,10.185,30.542,10.281,30.609,10.169z M39.51,13.393c-0.097,0.322-0.106,0.453,0.347,0.57
			c0.787,0.203,1.041-0.411,1.645-0.708c-0.581-0.058-1.018-0.107-1.455-0.141c-0.191-0.015-0.404-0.043-0.49,0.208
			c-0.048-0.212-0.207-0.273-0.396-0.292c-0.456-0.045-0.92-0.047-1.365-0.141c-0.716-0.151-1.036,0.418-1.658,0.71
			c0.643,0.129,1.135,0.088,1.617,0.121C38.34,13.76,38.975,13.763,39.51,13.393z M39.681,10.546
			c-0.033-0.219-0.204-0.219-0.368-0.238c-0.918-0.105-1.837-0.212-2.76-0.066c-0.154,0.024-0.353,0.015-0.393,0.213
			c-0.022,0.108,0.115,0.157,0.208,0.159c0.509,0.01,0.958,0.32,1.478,0.291c-0.136,0.222-0.342,0.326-0.609,0.339
			c0.152,0.045,0.293,0.061,0.434,0.065c0.125,0.003,0.282,0.042,0.34-0.108c0.058-0.151-0.09-0.22-0.181-0.305
			c0.448,0.114,0.883,0.04,1.331-0.069c-0.233,0.159-0.465,0.318-0.726,0.497c0.399,0.098,1.139-0.242,1.304-0.574
			c0.021-0.042-0.027-0.118-0.043-0.179c0.254,0.195,0.419-0.011,0.604-0.132c0.101-0.066,0.187-0.13,0.133-0.275
			c-0.043-0.116-0.1-0.199-0.237-0.211c-0.325-0.028-0.649-0.064-0.974-0.092c-0.095-0.008-0.216-0.019-0.231,0.112
			c-0.012,0.107,0.076,0.209,0.169,0.209C39.428,10.184,39.545,10.372,39.681,10.546z M23.683,10.995
			c-0.068-0.172-0.068-0.172-0.415-0.161c-0.037-0.152,0.175-0.132,0.176-0.256c-1.016-0.276-1.299-0.282-1.752,0.102
			c-0.259,0.219-0.483,0.317-0.83,0.226c-0.293-0.077-0.56,0.131-0.818,0.265c-0.088,0.046-0.135,0.233-0.045,0.214
			c0.356-0.078,0.512,0.257,0.79,0.318c0.655,0.143,1.276,0.08,1.849-0.294c-0.147,0.237-0.394,0.328-0.63,0.437
			c-0.076,0.035-0.148,0.091-0.143,0.18c0.006,0.127,0.115,0.133,0.213,0.151c0.408,0.074,0.681-0.167,0.998-0.38
			c-0.258-0.187-0.401,0.166-0.671,0.032c0.483-0.216,0.927-0.41,1.365-0.615c0.09-0.042,0.271-0.064,0.214-0.206
			C23.93,10.872,23.787,10.976,23.683,10.995z M27.172,16.629c-0.184,0.017-0.241,0.134-0.248,0.301
			c-0.007,0.176,0.124,0.184,0.241,0.248c0.442,0.239,0.902,0.261,1.301-0.011c0.46-0.315,0.886-0.222,1.381-0.055
			c-0.218,0.121-0.429,0.206-0.534,0.426c0.438,0.103,1.371-0.351,1.823-0.878c-0.574-0.065-1.141-0.18-1.708-0.179
			c-0.567,0.001-1.144-0.017-1.708,0.102c0.266-0.061,0.531-0.121,0.797-0.182c-0.734,0.044-1.498-0.513-2.27,0.078
			C26.592,16.628,26.872,16.692,27.172,16.629z M44.973,9.754c0.109,0.387,0.446,0.233,0.578,0.138
			c0.496-0.355,0.947-0.773,1.465-1.209c-0.361-0.049-0.529,0.183-0.744,0.303c-0.444,0.248-0.717,0.784-1.311,0.78
			c0.335-0.259,0.674-0.514,1.002-0.782c0.065-0.053,0.192-0.097,0.154-0.221c-0.035-0.114-0.153-0.11-0.245-0.129
			c-0.31-0.064-0.621-0.019-0.946-0.111c-0.389-0.11-0.864-0.286-1.245-0.081c-0.59,0.317-1.12,0.744-1.772,1.191
			C43.016,9.831,44.001,9.638,44.973,9.754z M17.597,17.328c0.2,0.13,0.43,0.111,0.61,0.018c1.056-0.547,2.101-1.115,3.15-1.677
			c-0.96-0.215-1.909-0.252-2.829-0.434c-0.967-0.191-1.784,0.03-2.6,0.522c-0.675,0.407-1.4,0.73-2.13,1.105
			c1.211,0.346,2.446-0.024,3.581,0.457c-0.196-0.06-0.386-0.072-0.56,0.062c-0.089,0.068-0.146,0.183-0.012,0.218
			c0.283,0.075,0.593,0.142,0.865,0.004C17.88,17.497,17.794,17.375,17.597,17.328z M36.481,17.201
			c-1.171-0.125-2.235-0.164-3.266-0.367c-1.097-0.217-1.989,0.006-2.837,0.727c-0.64,0.544-1.376,0.974-2.187,1.537
			c1.728,0.208,3.314,0.399,4.9,0.591c0.12,0.014,0.222-0.015,0.319-0.091C34.399,18.823,35.389,18.052,36.481,17.201z
			 M8.373,16.596c0.014,0.034,0.027,0.068,0.041,0.102c1.186,0.143,2.373,0.277,3.557,0.434c0.442,0.059,0.83-0.026,1.224-0.23
			c1.062-0.55,2.138-1.072,3.207-1.61c0.117-0.059,0.275-0.076,0.358-0.278c-1.322-0.145-2.605-0.286-3.888-0.428
			c-0.193-0.021-0.35,0.071-0.512,0.146c-0.951,0.443-1.9,0.888-2.85,1.332C9.13,16.241,8.751,16.419,8.373,16.596z M13.822,14.034
			c0.036,0.146,0.114,0.131,0.173,0.137c1.187,0.13,2.376,0.255,3.563,0.39c0.203,0.023,0.382,0.004,0.566-0.093
			c0.609-0.319,1.226-0.624,1.839-0.935c0.515-0.261,1.028-0.524,1.543-0.786c-0.668-0.154-1.315-0.19-1.956-0.276
			c-1.238-0.165-2.429-0.156-3.541,0.549c-0.466,0.296-1.007,0.473-1.514,0.705C14.266,13.83,14.038,13.935,13.822,14.034z
			 M38.318,11.868c-1.391-0.129-2.625-0.245-3.86-0.354c-0.109-0.01-0.242-0.003-0.331,0.051c-0.85,0.513-1.692,1.039-2.571,1.581
			c0.093,0.046,0.131,0.08,0.173,0.084c1.269,0.129,2.539,0.253,3.808,0.382c0.119,0.012,0.226,0.006,0.327-0.064
			C36.643,13.015,37.423,12.482,38.318,11.868z M27.166,12.674c0.011,0.034,0.022,0.068,0.033,0.101
			c1.237,0.126,2.474,0.252,3.711,0.375c0.096,0.009,0.214,0.024,0.288-0.02c0.875-0.52,1.744-1.051,2.615-1.578
			c-1.25-0.22-2.466-0.334-3.681-0.442c-0.077-0.007-0.168,0.011-0.236,0.048C28.985,11.66,28.076,12.168,27.166,12.674z
			 M45.155,10.419c-0.106-0.046-0.145-0.076-0.185-0.079c-1.14-0.091-2.28-0.18-3.42-0.266c-0.08-0.006-0.179-0.012-0.24,0.027
			c-0.664,0.43-1.322,0.868-2.099,1.381c1.411,0.147,2.661,0.279,3.911,0.404c0.073,0.007,0.166-0.023,0.225-0.068
			C43.941,11.366,44.528,10.906,45.155,10.419z M19.273,14.241c0.747,0.03,1.37-0.399,2.113-0.299
			c-0.382,0.496-1.091,0.324-1.559,0.816c0.72,0.068,1.363,0.116,2.001,0.194c0.433,0.052,0.812-0.101,1.215-0.208
			c0.302-0.08,0.103-0.469,0.376-0.48c0.562-0.023,0.861-0.442,1.232-0.763c0.1-0.087,0.15-0.164,0.126-0.29
			c-0.016-0.081-0.035-0.18-0.14-0.161c-0.237,0.042-0.439-0.147-0.663-0.101c-0.221,0.046-0.606-0.164-0.631,0.163
			c-0.023,0.308,0.353,0.338,0.629,0.352c0.015,0.001,0.028,0.036,0.062,0.083c-0.504,0.028-0.975,0.132-1.379,0.408
			c-0.179,0.123-0.25-0.046-0.307-0.102c-0.106-0.105,0.035-0.156,0.119-0.194c0.184-0.084,0.378-0.151,0.549-0.358
			c-0.378,0.028-0.607,0.355-0.945,0.312c-0.174-0.022-0.449,0.145-0.497-0.14c-0.041-0.246,0.246-0.216,0.397-0.266
			c0.341-0.114,0.693-0.193,1.04-0.287c-0.464-0.073-0.902-0.327-1.357-0.096c-1.036,0.527-2.075,1.049-3.109,1.58
			c-0.082,0.042-0.246,0.037-0.203,0.216c0.296,0.027,0.588,0.055,0.881,0.081c0.173,0.015,0.408,0.101,0.456-0.14
			C19.726,14.317,19.417,14.454,19.273,14.241z M24.849,14.001c1.149,0.228,2.234,0.069,3.259,0.373
			c0.905,0.269,1.497-0.286,2.247-0.759c-1.177-0.115-2.246-0.227-3.317-0.32c-0.316-0.027-0.635-0.188-0.957,0.003
			C25.703,13.523,25.318,13.735,24.849,14.001z M28.373,8.409c0.608-0.022,1.208,0.334,1.82-0.072
			c0.51-0.338,1.093-0.567,1.703-0.875c-1.938-0.352-3.747-0.484-5.315,0.798c0.151,0.099,0.366,0.091,0.569,0.088
			c0.305-0.004,0.719,0.205,0.765-0.375c0.011-0.142,0.162-0.084,0.282-0.05c0.385,0.109,0.776,0.201,1.191,0.188
			C29.046,8.201,28.741,8.404,28.373,8.409z M22.945,12.335c1.006,0.098,2.026,0.125,3.015,0.316
			c0.874,0.169,1.416-0.346,2.061-0.714c-0.982-0.145-1.968-0.168-2.924-0.349C24.217,11.421,23.606,11.871,22.945,12.335z
			 M37.733,9.108c0.582-0.35,1.142-0.687,1.804-1.085c-1.015-0.077-1.894-0.126-2.769-0.219c-0.458-0.049-0.844,0.03-1.254,0.261
			c-0.473,0.267-0.797,0.777-1.41,0.811c0.064,0.052,0.107,0.064,0.151,0.068c0.065,0.006,0.131,0.008,0.196,0.007
			c0.625-0.001,1.307,0.412,1.827-0.33C36.427,8.408,36.759,8.323,37,8.183c0.179,0.394,0.305,0.73-0.264,0.896
			c0.273,0.139,0.476,0.133,0.716,0.131c-0.029-0.262-0.188-0.64,0.101-0.693C37.786,8.475,37.616,8.865,37.733,9.108z
			 M28.718,10.082c0.399-0.063,0.739-0.12,1.09-0.286c0.276-0.131-0.081-0.544,0.25-0.403c0.241,0.103,0.454,0.103,0.688,0.081
			c0.059-0.006,0.115-0.039,0.188-0.066c-0.388-0.261-1.403-0.568-1.639-0.451c-0.84,0.418-1.666,0.862-2.607,1.353
			c0.533,0.032,0.94,0.035,1.341,0.087c0.42,0.055,0.834,0.055,1.319,0.064C29.165,10.174,28.869,10.339,28.718,10.082z
			 M26.215,18.544c0.335,0.081,0.464-0.305,0.754-0.332c0.109-0.01,0.231-0.08,0.204-0.225c-0.026-0.137-0.148-0.148-0.267-0.159
			c-0.431-0.038-0.869-0.148-1.29-0.103c-0.29,0.031-0.601,0.226-0.82,0.435c-0.152,0.146,0.083,0.223,0.224,0.249
			C25.415,18.483,25.824,18.423,26.215,18.544z M22.87,16.653c0.507,0.09,0.872-0.182,1.277-0.289
			c0.064-0.017,0.112-0.064,0.111-0.141c-0.001-0.088-0.071-0.1-0.132-0.112c-0.834-0.157-1.668-0.159-2.502,0.003
			c-0.083,0.016-0.173,0.044-0.162,0.142c0.005,0.045,0.08,0.116,0.127,0.119C22.051,16.405,22.438,16.773,22.87,16.653z
			 M24.312,14.916c0.646,0.442,1.65,0.322,2.209-0.285C25.744,14.361,25.007,14.407,24.312,14.916z M31.283,15.226
			c-1.766-0.28-1.766-0.28-2.239,0.226C29.822,15.427,30.532,15.897,31.283,15.226z M20.532,17.201
			c-0.164,0-0.295-0.012-0.423,0.004c-0.108,0.014-0.158,0.11-0.187,0.207c-0.034,0.118,0.033,0.189,0.133,0.225
			c0.439,0.155,0.882,0.244,1.33,0.037c0.097-0.045,0.264-0.072,0.192-0.22c-0.073-0.151-0.218-0.195-0.349-0.033
			c-0.042,0.051-0.141,0.111-0.141,0.057C21.092,16.925,20.652,17.38,20.532,17.201z M24.673,9.524
			c0.528,0.146,1.028,0.162,1.533,0.01c0.061-0.018,0.14-0.014,0.153-0.094c0.015-0.093-0.05-0.148-0.123-0.188
			C25.853,9.04,25.112,9.161,24.673,9.524z M32.918,8.329c-0.593-0.068-1.198-0.261-1.805,0.185
			C31.789,8.829,32.368,8.731,32.918,8.329z M39.869,9.358c0.186,0.021,0.358-0.001,0.504-0.137c0.101-0.094,0.17-0.209-0.016-0.239
			c-0.353-0.057-0.713-0.085-1.07-0.094c-0.119-0.003-0.283,0.08-0.292,0.221c-0.013,0.188,0.172,0.155,0.29,0.174
			C39.478,9.314,39.674,9.334,39.869,9.358z M31.867,14.5c0.151-0.033,0.517,0.101,0.54-0.204c0.026-0.352-0.366-0.172-0.567-0.243
			c-0.087-0.031-0.206-0.05-0.285-0.015c-0.177,0.079-0.51,0.015-0.497,0.267c0.011,0.209,0.317,0.127,0.493,0.168
			C31.63,14.491,31.713,14.487,31.867,14.5z M35.133,16.099c0.188-0.037,0.499,0.057,0.514-0.212
			c0.015-0.263-0.299-0.221-0.499-0.274c-0.276-0.073-0.5,0.131-0.763,0.11c-0.036-0.003-0.101,0.083-0.112,0.135
			c-0.014,0.07,0.049,0.112,0.121,0.124C34.637,16.021,34.879,16.059,35.133,16.099z M36.585,14.982
			c0.167-0.009,0.519,0.112,0.53-0.163c0.011-0.282-0.354-0.251-0.593-0.269c-0.016-0.001-0.033-0.005-0.049-0.002
			c-0.244,0.032-0.646-0.007-0.65,0.232c-0.004,0.248,0.391,0.152,0.616,0.192C36.471,14.977,36.505,14.977,36.585,14.982z
			 M26.757,11.037c-0.267,0.006-0.645-0.047-0.676,0.204c-0.023,0.185,0.391,0.147,0.615,0.18c0.225,0.033,0.556,0.046,0.564-0.207
			C27.267,10.967,26.926,11.092,26.757,11.037z M32.311,7.935c0.34,0.045,0.562,0.079,0.786,0.102
			c0.165,0.017,0.314-0.08,0.345-0.214c0.045-0.197-0.158-0.207-0.291-0.245C32.824,7.484,32.615,7.676,32.311,7.935z M32.851,10.31
			c-0.253-0.001-0.602,0.015-0.617,0.199c-0.022,0.255,0.33,0.173,0.514,0.208c0.229,0.045,0.605,0.078,0.626-0.195
			C33.397,10.216,33.007,10.418,32.851,10.31z M22.31,18.235c0.54-0.189,1.08-0.383,1.458-0.85
			C23.194,17.51,22.747,17.863,22.31,18.235z M39.19,12.538c0.692,0.254,0.873,0.226,1.182-0.19
			C39.957,12.316,39.544,12.118,39.19,12.538z M34.691,9.86c-0.866-0.314-1.015-0.316-1.359-0.033
			C33.761,9.911,34.161,10.021,34.691,9.86z M34.521,14.164c-0.509-0.009-0.759,0.41-1.102,0.685
			C33.875,14.775,34.206,14.49,34.521,14.164z M32.894,15.316c-0.597-0.084-0.745,0.409-1.071,0.592
			C32.249,15.899,32.539,15.654,32.894,15.316z M38.248,15.4c0.385-0.002,0.549-0.279,0.779-0.434
			c0.075-0.051,0.258-0.101,0.118-0.243c-0.088-0.09-0.225-0.046-0.308,0.038C38.648,14.951,38.472,15.154,38.248,15.4z
			 M36.896,16.456c0.345-0.036,0.578-0.221,0.781-0.511C37.16,15.788,37.116,16.254,36.896,16.456z M34.146,10.97
			c0.379,0.08,0.547-0.108,0.746-0.194c0.061-0.026,0.099-0.107,0.051-0.162c-0.034-0.039-0.132-0.071-0.17-0.05
			C34.593,10.667,34.424,10.788,34.146,10.97z M40.317,12.846c0.521,0.125,0.579-0.349,0.857-0.491
			C40.816,12.377,40.605,12.62,40.317,12.846z"/>
		<path fill="#C2C2C2" d="M23.927,31.507c0-0.441,0-0.881,0-1.322c0.041,0,0.083,0,0.124,0c0.083,0.45,0.042,0.9,0.011,1.351
			C24.017,31.527,23.972,31.517,23.927,31.507z"/>
		<path fill="#C2C2C2" d="M23.825,32.764c-0.011,0.153-0.032,0.248-0.022,0.34c0.011,0.098,0.059,0.208-0.098,0.203
			c-0.101-0.003-0.105-0.093-0.101-0.182c0.009-0.222,0.009-0.445,0.008-0.668c0-0.088-0.069-0.218,0.085-0.219
			c0.118-0.001,0.144,0.091,0.106,0.21C23.765,32.567,23.898,32.697,23.825,32.764z"/>
		<path fill="#C2C2C2" d="M17.116,13.734c0.38,0.047,0.757-0.161,1.128,0.01C17.866,13.864,17.489,13.992,17.116,13.734z"/>
		<path fill="#C2C2C2" d="M23.458,11.122c-0.226,0.239-0.59,0.044-0.823,0.26c-0.107-0.167,0.008-0.451-0.353-0.499
			c0.275-0.137,0.451-0.365,0.666-0.001C23.026,11.013,23.244,11.135,23.458,11.122z"/>
	</g>
</g>
<g id="Layer_3" display="none">
	<g display="inline">
		<path fill="#C2C2C2" d="M20.221,33.154c0.103,0.207,0.076,0.333,0.077,0.456c0.024,1.574,0.018,3.148,0.042,4.723
			c0.036,2.365-0.021,4.731-0.04,7.096c-0.001,0.136-0.01,0.269-0.072,0.397c-0.201,0.414-0.074,0.661,0.376,0.743
			c0.445,0.081,0.515,0.025,0.527-0.429c0.195-6.887,0.118-13.777,0.199-20.665c0.05-4.214,0.043-8.43,0.089-12.644
			c0.042-3.863,0.108-7.726,0.11-11.59c0-0.121-0.048-0.285,0.063-0.35c0.146-0.085,0.241,0.088,0.338,0.163
			c0.924,0.716,1.888,1.377,2.852,2.037c0.824,0.564,1.61,1.187,2.45,1.726c1.108,0.71,2.164,1.494,3.245,2.24
			c0.266,0.183,0.498,0.41,0.789,0.564c0.278,0.147,0.326,0.422,0.326,0.727c-0.005,3.773-0.002,7.546-0.001,11.319
			c0,0.453-0.018,0.907,0.003,1.36c0.311,6.665,0.049,13.334,0.13,20.001c0.002,0.205,0.036,0.36,0.23,0.482
			c0.169,0.105,0.311,0.259,0.447,0.408c0.346,0.376,0.734,0.69,1.217,0.875c0.129,0.049,0.226,0.145,0.321,0.242
			c0.299,0.306,0.297,0.503-0.053,0.741c-0.397,0.269-0.81,0.514-1.222,0.759c-0.864,0.514-1.733,1.018-2.598,1.531
			c-0.98,0.58-1.931,1.206-2.908,1.792c-0.88,0.527-1.789,1.011-2.613,1.628c-0.283,0.212-0.604,0.197-0.929,0.233
			c-0.578,0.064-0.996-0.185-1.428-0.527c-0.479-0.38-1.023-0.679-1.537-1.015c-0.692-0.452-1.383-0.905-2.073-1.361
			c-0.205-0.135-0.413-0.261-0.573-0.462c-0.165-0.208-0.163-0.378,0.013-0.568c0.253-0.273,0.591-0.4,0.919-0.539
			c0.317-0.135,0.643-0.251,0.969-0.366c0.187-0.067,0.214-0.21,0.214-0.378c0-1.189-0.02-2.379,0.008-3.567
			c0.037-1.619,0.045-3.239,0.049-4.858c0.003-0.872-0.001-1.745,0.001-2.617C20.177,33.382,20.198,33.308,20.221,33.154z
			 M27.025,26.26c-0.153-0.096-0.135-0.234-0.12-0.346c0.053-0.406,0.005-0.815,0.042-1.217c0.039-0.435,0.023-0.885,0.204-1.301
			c0.061-0.14,0.145-0.254,0.303-0.18c0.303,0.143,0.249-0.062,0.238-0.227c-0.059-0.904-0.08-1.81-0.11-2.715
			c-0.031-0.937-0.06-1.88-0.265-2.801c-0.122-0.551-0.715-1.05-1.419-0.695c-0.48,0.242-0.751,0.662-1.038,1.069
			c-0.84,1.193-1.414,2.535-2.117,3.805c-0.445,0.803-0.638,1.619-0.565,2.522c0.029,0.36,0.003,0.725,0,1.087
			c-0.011,1.688-0.017,3.375-0.037,5.063c-0.003,0.273,0.063,0.393,0.361,0.364c0.27-0.026,0.534-0.094,0.799-0.113
			c0.965-0.07,1.925-0.193,2.888-0.271c0.751-0.06,1.497-0.218,2.257-0.179c0.045,0.002,0.092,0,0.135-0.011
			c0.714-0.185,1.454-0.119,2.177-0.236c0.433-0.07,0.441-0.022,0.441-0.458c0-3.532,0-7.065,0.001-10.597
			c0.001-3.319,0-6.638,0.008-9.957c0.001-0.293-0.061-0.489-0.344-0.65c-0.363-0.206-0.691-0.474-1.058-0.681
			c-0.076-0.043-0.141-0.157-0.226-0.096c-0.105,0.075-0.011,0.182,0.017,0.276c0.386,1.317,0.669,2.652,0.765,4.025
			c0.009,0.131-0.168,0.463,0.242,0.331c0.046-0.015,0.066,0.047,0.083,0.089c0.094,0.226-0.001,1.065-0.146,1.284
			c-0.092-0.073,0.018-0.3-0.171-0.272c-0.128,0.019-0.146,0.184-0.17,0.306c-0.019,0.096-0.034,0.194-0.051,0.292
			c0.139,0.045,0.248-0.18,0.344-0.04c0.096,0.139-0.011,0.279-0.106,0.394c-0.064,0.078-0.127,0.169-0.212,0.216
			c-1.037,0.576-1.538,1.557-1.893,2.609c-0.269,0.797-0.259,1.648-0.237,2.487c0.011,0.43-0.012,0.859-0.038,1.288
			c-0.046,0.768-0.063,1.539-0.092,2.308c-0.007,0.191,0.02,0.345,0.277,0.295c0.171-0.033,0.252,0.09,0.294,0.221
			c0.104,0.326,0.124,0.661,0.063,1c-0.073-0.206-0.106-0.418-0.167-0.622c-0.043-0.142-0.155-0.288-0.302-0.275
			c-0.146,0.013-0.18,0.179-0.178,0.324c0.009,0.609-0.073,1.217,0.015,1.827c0.027,0.185-0.024,0.377-0.152,0.546
			c-0.058-0.228-0.059-0.45-0.058-0.672c0.004-0.599,0.011-1.199,0.01-1.798c0-0.11-0.007-0.232-0.156-0.264
			c-0.14-0.031-0.259,0.007-0.305,0.142c-0.207,0.607-0.297,1.237-0.174,1.864C27.133,25.864,27.106,26.044,27.025,26.26z
			 M22.28,8.75c-0.027,0-0.054,0-0.081,0c0,1.994,0,3.987,0,5.981c0,0.098-0.039,0.244,0.074,0.269
			c0.13,0.029,0.163-0.129,0.213-0.221c0.603-1.123,1.284-2.199,2.006-3.248c1.134-1.648,2.287-3.282,3.437-4.919
			c0.098-0.14,0.154-0.285-0.006-0.373c-0.17-0.093-0.294-0.234-0.45-0.341c-1.629-1.112-3.251-2.232-4.871-3.357
			c-0.236-0.164-0.313-0.092-0.317,0.161c-0.002,0.091-0.004,0.181-0.004,0.272C22.28,4.899,22.28,6.824,22.28,8.75z"/>
		<path fill="#C2C2C2" d="M29.547,15.314c0.024,0.208-0.152,0.315-0.24,0.465c-0.237,0.402-0.498,0.79-0.683,1.239
			c-0.106-0.118-0.021-0.183,0.012-0.259c0.183-0.424,0.396-0.831,0.659-1.21c0.067-0.096,0.097-0.239,0.259-0.227L29.547,15.314z"
			/>
		<path fill="#C2C2C2" d="M28.848,20.515c0,0.255-0.001,0.509,0.001,0.764c0,0.056,0.015,0.118-0.058,0.133
			c-0.022,0.005-0.076-0.031-0.075-0.045c0.016-0.287-0.029-0.582,0.038-0.864C28.785,20.507,28.817,20.511,28.848,20.515z"/>
		<path fill="#C2C2C2" d="M29.464,20.651c0.094,0.268,0.151,0.536,0.059,0.815c-0.015,0.046-0.025,0.087-0.082,0.083
			c-0.062-0.005-0.071-0.055-0.058-0.098C29.466,21.189,29.375,20.916,29.464,20.651z"/>
		<path fill="#C2C2C2" d="M30.804,21.808c0-0.277,0-0.553,0-0.83c0.019,0,0.037-0.001,0.056-0.001c0,0.276,0,0.552,0,0.829
			C30.841,21.807,30.822,21.808,30.804,21.808z"/>
		<path fill="#C2C2C2" d="M29.583,22.834c-0.024-0.229-0.033-0.449-0.179-0.655C29.76,22.329,29.833,22.603,29.583,22.834z"/>
		<path fill="#C2C2C2" d="M28.637,26.296c-0.202-0.205-0.229-0.364-0.123-0.538c0.025-0.041,0.083-0.064,0.11-0.021
			C28.726,25.902,28.666,26.068,28.637,26.296z"/>
		<path fill="#C2C2C2" d="M29.555,15.322c0.021-0.226,0.189-0.352,0.336-0.493c-0.029,0.222-0.153,0.377-0.344,0.485
			C29.547,15.314,29.555,15.322,29.555,15.322z"/>
		<path fill="#C2C2C2" d="M29.139,22.801c-0.008-0.309-0.012-0.547,0.065-0.78C29.226,22.259,29.319,22.498,29.139,22.801z"/>
	</g>
</g>
<g id="Layer_4" display="none">
	<g display="inline">
		<path fill="#C2C2C2" d="M36.434,43.107c-2.562,1.08-5.015,2.12-7.476,3.145c-0.478,0.199-0.926,0.357-0.867,1.025
			c0.013,0.151-0.199,0.405-0.365,0.476c-1.408,0.6-2.823,1.185-4.252,1.73c-0.256,0.098-0.639,0.087-0.882-0.035
			c-3.182-1.598-6.35-3.226-9.52-4.848c-0.056-0.029-0.099-0.082-0.212-0.179c0.329-0.112,0.597-0.212,0.871-0.294
			c1.121-0.336,2.238-0.683,3.366-0.992c0.475-0.13,0.657-0.348,0.632-0.868c-0.167-3.488-0.356-6.977-0.433-10.468
			c-0.104-4.73-0.143-9.463-0.156-14.195c-0.012-4.337,0.047-8.674,0.076-13.011c0.001-0.172,0.01-0.344,0.014-0.516
			c0.008-0.318,0.17-0.469,0.488-0.462c0.155,0.003,0.311,0.003,0.464-0.011c0.499-0.047,0.872-0.267,1.058-0.76
			c0.237-0.627,0.507-1.243,0.724-1.877c0.118-0.344,0.323-0.509,0.668-0.517c0.256-0.006,0.52-0.031,0.768,0.015
			c2.485,0.46,4.967,0.941,7.454,1.395c0.418,0.076,0.67,0.247,0.808,0.661c0.229,0.684,0.478,1.366,0.78,2.02
			c0.103,0.224,0.368,0.47,0.597,0.517c0.359,0.073,0.436,0.236,0.443,0.55c0.04,1.807,0.096,3.613,0.138,5.419
			c0.109,4.697,0.261,9.394,0.301,14.092c0.02,2.37-0.155,4.743-0.26,7.113c-0.123,2.784-0.27,5.566-0.395,8.35
			c-0.04,0.89,0.031,0.913,0.871,1.163C33.538,42.161,34.924,42.625,36.434,43.107z M21.799,6.096
			c0.065,4.618,0.129,9.161,0.194,13.705c0.018-0.004,0.037-0.007,0.055-0.011c0.066-0.244,0.133-0.488,0.199-0.732
			c0.077,0.019,0.154,0.039,0.23,0.058c-0.042,0.377-0.083,0.753-0.129,1.169c0.029-0.011,0.153-0.019,0.193-0.081
			c0.074-0.114,0.129-0.258,0.137-0.393c0.012-0.212-0.043-0.428-0.029-0.64c0.014-0.212,0.078-0.421,0.14-0.728
			c-0.027,0.007,0.078-0.019,0.196-0.048c-0.04-0.075-0.109-0.145-0.113-0.219c-0.039-0.699-0.108-1.401-0.088-2.099
			c0.022-0.789,0.11-0.839,0.878-0.84c0.753-0.002,1.505,0,2.314,0c0-0.379,0-0.716,0-1.053c0.089,0.168,0.121,0.338,0.11,0.506
			c-0.027,0.449,0.163,0.606,0.613,0.569c0.461-0.037,0.929,0.018,1.392-0.004c0.423-0.02,0.604,0.154,0.595,0.57
			c-0.012,0.585-0.012,1.17-0.015,1.755c-0.002,0.573,0,1.146,0,1.658c0.74-0.113,0.571-0.644,0.574-1.106
			c0.005-0.676,0.019-1.352,0.025-2.028c0.028-2.873,0.047-5.747,0.091-8.62c0.007-0.43-0.153-0.553-0.555-0.595
			c-1.318-0.136-2.631-0.316-3.947-0.468C23.873,6.307,22.886,6.211,21.799,6.096z M28.586,40.445c0-1.638,0-3.218,0-4.827
			c-0.185,0.03-0.287,0.038-0.384,0.064c-1.428,0.375-2.843,0.812-4.286,1.11c-1.027,0.212-2.007,0.885-3.206,0.355
			c0,1.645,0,3.209,0,4.868c0.638-0.355,1.551-0.052,1.813-1.035c0.029-0.109,0.271-0.183,0.428-0.232
			c0.901-0.282,1.797-0.585,2.713-0.808c0.391-0.095,0.838-0.079,1.237,0C27.479,40.056,28.037,40.276,28.586,40.445z M21.971,25.97
			c0.671-0.071,1.215-0.121,1.757-0.187c1.704-0.207,3.408-0.426,5.113-0.627c0.334-0.039,0.482-0.166,0.459-0.519
			c-0.034-0.529-0.109-1.073-0.022-1.587c0.09-0.528-0.351-0.749-0.473-1.157c-0.094,0.341-0.151,0.675-0.129,1.004
			c0.026,0.389-0.121,0.655-0.48,0.724c-0.374,0.071-0.767,0.037-1.15,0.075c-1.111,0.111-2.221,0.224-3.33,0.358
			c-0.434,0.052-0.826,0.089-0.921-0.472c-0.482,0.188-0.814,0.456-0.823,0.978C21.964,25.032,21.971,25.505,21.971,25.97z
			 M26.526,19.006c0.001,0.018,0.001,0.037,0.002,0.055c-1.099,0.056-2.198,0.112-3.297,0.168c0.004,0.031,0.008,0.063,0.013,0.094
			c1.274,0,2.548,0,3.915,0c-0.147-0.18-0.204-0.248-0.282-0.344c0.524-0.052,0.999-0.098,1.474-0.145
			c-0.006-0.065-0.011-0.129-0.017-0.194c-1.711,0.074-3.422,0.147-5.133,0.221c0.001,0.048,0.002,0.097,0.003,0.145
			C24.31,19.006,25.418,19.006,26.526,19.006z M21.918,21.312c0.19,0.435-0.256,0.993,0.427,1.265
			c0.251-0.404,0.48-0.774,0.785-1.265C22.622,21.312,22.311,21.312,21.918,21.312z M23.283,22.828
			c0.003,0.057,0.007,0.114,0.01,0.171c1.483-0.135,2.966-0.269,4.45-0.404c-0.005-0.056-0.01-0.113-0.015-0.169
			C26.246,22.559,24.765,22.693,23.283,22.828z M23.27,23.191c0.001,0.058,0.003,0.116,0.004,0.175
			c1.425-0.135,2.85-0.271,4.275-0.406c-0.004-0.05-0.008-0.1-0.012-0.15C26.115,22.936,24.693,23.063,23.27,23.191z M28.156,16.955
			c-0.001-0.027-0.002-0.055-0.002-0.082c-1.284,0-2.569,0-3.853,0c0.001,0.027,0.002,0.055,0.002,0.082
			C25.587,16.955,26.872,16.955,28.156,16.955z M23.165,20.776c-0.003,0.074-0.005,0.147-0.008,0.221
			c0.379,0,0.758,0.007,1.137-0.002c0.311-0.008,0.672-0.271,0.887,0.193c0.01,0.022,0.194,0.008,0.249-0.042
			c0.137-0.126,0.246-0.282,0.319-0.369C24.93,20.776,24.047,20.776,23.165,20.776z M26.623,2.51c-0.209,0.03-0.356,0.051-0.7,0.1
			c0.269,0.29,0.446,0.481,0.7,0.756C26.623,3.026,26.623,2.789,26.623,2.51z M25.173,17.401c0.014-0.044,0.028-0.088,0.043-0.132
			c-0.661,0-1.321,0-1.982,0c-0.001,0.044-0.002,0.088-0.003,0.132C23.878,17.401,24.525,17.401,25.173,17.401z M27.342,20.267
			c0.027-0.068,0.054-0.137,0.082-0.205c-0.167-0.077-0.337-0.219-0.5-0.21c-0.149,0.008-0.29,0.179-0.434,0.279
			c0.021,0.032,0.042,0.065,0.063,0.097C26.816,20.241,27.079,20.254,27.342,20.267z M25.413,17.21
			c-0.003,0.038-0.006,0.077-0.009,0.115c0.561,0,1.122,0,1.682,0c0-0.038,0-0.077,0-0.115C26.528,17.21,25.97,17.21,25.413,17.21z
			 M29.032,20.62c-0.092-0.013-0.183-0.025-0.275-0.038c-0.016,0.329-0.032,0.657-0.049,0.986c0.068,0.005,0.137,0.009,0.205,0.014
			C28.953,21.261,28.992,20.941,29.032,20.62z M26.334,15.485c-0.003,0.072-0.007,0.144-0.01,0.216c0.302,0,0.604,0,0.905,0
			c0.001-0.057,0.003-0.114,0.004-0.171C26.934,15.515,26.634,15.5,26.334,15.485z M22.669,23.334
			c-0.227-0.144-0.333-0.261-0.441-0.263c-0.085-0.001-0.249,0.153-0.24,0.217c0.016,0.108,0.131,0.263,0.226,0.281
			C22.31,23.587,22.434,23.464,22.669,23.334z"/>
		<path fill="#C2C2C2" d="M26.582,12.827c-0.215-0.12-0.338-0.189-0.462-0.258c0.313-0.375,0.553-0.368,0.75,0.018
			c0.267,0.525,0.477,0.542,0.874,0.076c0.146,0.044,0.287,0.102,0.434,0.126c0.132,0.021,0.27,0.004,0.402,0.004
			c0.268,0.757,0.156,0.915-0.591,0.893c-1.513-0.046-3.027-0.081-4.54-0.119c-0.804-0.02-0.873-0.11-0.688-0.961
			c0.291,0.209,0.591,0.377,0.895,0.051c0.466,0.311,1.06-0.365,1.497,0.196c0.038,0.049,0.118,0.1,0.174,0.096
			C25.703,12.92,26.079,12.878,26.582,12.827z"/>
		<path fill="#C2C2C2" d="M22.786,7.737c0.469,0.003,0.94-0.025,1.406,0.014c1.438,0.121,2.873,0.267,4.261,0.398
			c0.062,0.144,0.116,0.242,0.146,0.348c0.034,0.121,0.096,0.268,0.055,0.366c-0.037,0.09-0.201,0.195-0.297,0.184
			c-0.937-0.105-1.87-0.241-2.807-0.352c-0.784-0.093-1.57-0.167-2.356-0.247c-0.58-0.059-0.637-0.163-0.396-0.723
			c0.097,0.097,0.18,0.252,0.294,0.278c0.262,0.06,0.538,0.067,0.809,0.079c0.259,0.012,0.52,0.002,0.78,0.002
			c0.002-0.043,0.004-0.087,0.005-0.13C24.052,7.882,23.419,7.81,22.786,7.737z"/>
		<path fill="#C2C2C2" d="M22.711,11.901c0-0.326,0-0.54,0-0.781c0.045-0.016,0.109-0.06,0.168-0.055
			c0.955,0.087,1.909,0.189,2.865,0.266c0.196,0.016,0.402-0.089,0.598-0.072c0.422,0.037,0.839,0.137,1.261,0.173
			c0.232,0.02,0.472-0.057,0.706-0.049c0.125,0.004,0.248,0.094,0.372,0.146c-0.106,0.073-0.204,0.172-0.322,0.212
			c-0.105,0.036-0.232,0.008-0.383,0.111c0.133,0.038,0.275,0.059,0.397,0.118c0.114,0.055,0.209,0.151,0.312,0.229
			c-0.125,0.096-0.272,0.29-0.37,0.268c-0.276-0.061-0.635-0.039-0.712-0.472c-0.013-0.076-0.361-0.164-0.526-0.125
			c-0.251,0.06-0.47,0.249-0.596-0.162c-0.021-0.067-0.271-0.134-0.36-0.09c-0.11,0.054-0.163,0.225-0.263,0.38
			c-0.415-0.478-0.732-0.285-1.141,0.094c-0.169,0.156-0.777,0.126-0.926-0.045C23.46,11.668,23.218,11.415,22.711,11.901z"/>
		<path fill="#C2C2C2" d="M27.908,10.702c-1.577-0.099-3.155-0.191-4.731-0.31c-0.155-0.012-0.298-0.195-0.446-0.299
			c0.159-0.06,0.321-0.179,0.476-0.17c1.698,0.09,3.395,0.195,5.09,0.315c0.122,0.009,0.233,0.172,0.349,0.263
			c-0.126,0.078-0.244,0.182-0.381,0.227c-0.107,0.035-0.238-0.004-0.358-0.01C27.907,10.713,27.908,10.708,27.908,10.702z"/>
		<path fill="#C2C2C2" d="M28.521,11.233c-1.873-0.111-3.745-0.223-5.618-0.334c0.003-0.053,0.006-0.107,0.008-0.16
			c1.871,0.111,3.742,0.222,5.613,0.334C28.523,11.126,28.522,11.18,28.521,11.233z"/>
	</g>
</g>
<g id="Layer_5">
	<g>
		<path fill="#C2C2C2" d="M33.792,42.702c0,0.915-0.002,1.831,0.002,2.746c0.001,0.178-0.024,0.383,0.052,0.529
			c0.231,0.444-0.012,0.568-0.374,0.667c-2.216,0.601-4.431,1.21-6.647,1.812c-1.385,0.377-2.771,0.75-4.158,1.117
			c-0.188,0.05-0.387,0.083-0.581,0.083c-0.361,0-0.517-0.242-0.514-0.563c0.003-0.291-0.119-0.461-0.355-0.605
			c-2.021-1.235-4.035-2.483-6.063-3.708c-0.216-0.13-0.503-0.163-0.763-0.195c-0.377-0.047-0.538-0.245-0.525-0.611
			c0.037-1.054,0.095-2.107,0.101-3.161c0.002-0.431,0.083-0.664,0.574-0.688c0.303-0.015,0.693-0.001,0.793-0.467
			c0.017-0.081,0.28-0.122,0.435-0.158c1.661-0.385,3.323-0.761,4.983-1.149c0.674-0.158,0.671-0.187,0.622-0.875
			c-0.139-1.949-0.243-3.901-0.402-5.849c-0.177-2.162-0.374-4.323-0.608-6.48c-0.266-2.46-0.54-4.92-0.887-7.37
			c-0.485-3.427-1.019-6.848-1.572-10.266C17.6,5.634,17.211,3.772,16.873,1.9c-0.026-0.145,0.047-0.308,0.074-0.463
			c0.085,0.145,0.216,0.281,0.247,0.437c0.269,1.373,0.547,2.745,0.77,4.126c0.646,4.001,1.303,8.002,1.885,12.013
			c0.376,2.59,0.641,5.196,0.93,7.798c0.228,2.049,0.421,4.101,0.62,6.153c0.061,0.624,0.09,1.251,0.136,1.877
			c0.006,0.087,0.026,0.173,0.04,0.26c0.018-0.095,0.057-0.191,0.051-0.284c-0.081-1.359-0.174-2.717-0.244-4.076
			c-0.01-0.186,0.094-0.376,0.133-0.567c0.041-0.203,0.115-0.414,0.093-0.612c-0.302-2.814-0.597-5.628-0.935-8.438
			c-0.732-6.091-1.699-12.145-2.921-18.157c-0.036-0.177-0.014-0.365-0.019-0.549c0.063,0.176,0.154,0.348,0.185,0.529
			c0.782,4.559,1.586,9.115,2.322,13.682c0.379,2.352,0.661,4.72,0.938,7.087c0.26,2.223,0.453,4.455,0.686,6.681
			c0.033,0.313,0.125,0.619,0.189,0.929c0.252-0.188,0.538-0.344,0.751-0.569c0.801-0.843,1.579-1.709,2.363-2.568
			c0.084-0.092,0.173-0.189,0.227-0.299c0.471-0.96,0.946-1.919,1.392-2.891c0.116-0.254,0.125-0.556,0.196-0.833
			c0.084-0.325,0.195-0.644,0.271-0.971c0.039-0.169,0.051-0.351,0.033-0.523c-0.066-0.654-0.162-1.306-0.212-1.961
			c-0.01-0.127,0.143-0.262,0.21-0.399c0.028-0.057,0.053-0.143,0.029-0.189c-0.02-0.038-0.137-0.071-0.173-0.048
			c-0.22,0.144-0.501-0.218-0.741,0.147c-0.107,0.163-0.53,0.124-0.812,0.162c-0.113,0.015-0.329,0.004-0.333-0.02
			c-0.037-0.248-0.056-0.502-0.035-0.751c0.003-0.03,0.27-0.045,0.415-0.055c0.518-0.036,1.036-0.06,1.552-0.111
			c0.071-0.007,0.13-0.143,0.194-0.22c-0.093-0.025-0.186-0.074-0.278-0.07c-0.567,0.022-1.142,0.004-1.696,0.106
			c-0.308,0.056-0.308-0.004-0.246-0.23c0.038-0.138,0.079-0.279,0.148-0.402c0.034-0.06,0.135-0.081,0.206-0.12
			c0.225,0.429,0.479,0.032,0.719,0.025c0.107-0.003,0.217-0.003,0.322-0.022c0.132-0.024,0.26-0.066,0.39-0.101
			c-0.102-0.048-0.214-0.083-0.304-0.149c-0.124-0.092-0.293-0.187-0.334-0.315c-0.189-0.588-0.337-1.189-0.509-1.783
			c-0.044-0.153-0.085-0.335-0.192-0.435c-0.226-0.211-0.329-0.361-0.103-0.669c0.178-0.242-0.1-0.296-0.275-0.282
			c-0.5,0.041-0.998,0.099-1.496,0.165c-0.835,0.11-1.67,0.226-2.503,0.347c-0.4,0.058-0.535-0.141-0.59-0.506
			c-0.384-2.536-0.782-5.069-1.175-7.604c-0.052-0.337-0.093-0.675-0.152-1.011c-0.042-0.238,0.068-0.329,0.285-0.35
			c1.16-0.112,2.318-0.233,3.479-0.337c1.41-0.127,2.82-0.241,4.23-0.362c0.321-0.027,0.643-0.058,0.964-0.087
			c0.515-0.047,0.584,0.015,0.677,0.572c0.149,0.902,0.303,1.804,0.457,2.705c0.018,0.106,0.031,0.216,0.07,0.315
			c0.042,0.108,0.11,0.205,0.166,0.307c0.108-0.085,0.284-0.152,0.311-0.258c0.051-0.198,0.049-0.425,0.012-0.629
			C29.595,5,29.208,2.956,28.843,0.908c-0.032-0.178,0.053-0.376,0.084-0.565c0.125,0.168,0.322,0.321,0.364,0.507
			c0.215,0.962,0.4,1.932,0.577,2.902c0.397,2.168,0.83,4.331,1.163,6.509c0.466,3.047,0.897,6.1,1.264,9.161
			c0.366,3.06,0.668,6.128,0.934,9.198c0.179,2.071,0.27,4.151,0.357,6.229c0.11,2.616,0.175,5.234,0.26,7.851
			C33.827,42.701,33.81,42.701,33.792,42.702z M21.524,42.203c-0.033-0.556-0.075-1.27-0.119-1.984
			c-0.005-0.089-0.017-0.177-0.025-0.265c-0.044,0.081-0.086,0.164-0.131,0.244c-0.153,0.271-0.381,0.302-0.644,0.188
			c-1.672-0.726-3.398-0.07-5.094-0.196c-0.09-0.007-0.188,0.082-0.282,0.127c0.069,0.074,0.126,0.169,0.21,0.22
			c0.398,0.241,0.803,0.471,1.205,0.704c1.471,0.853,2.94,1.71,4.415,2.557c0.396,0.227,0.453,0.19,0.463-0.253
			C21.532,43.151,21.524,42.757,21.524,42.203z M21.127,14.058c0.098-0.014,0.115-0.017,0.133-0.019
			c2.82-0.385,5.641-0.77,8.46-1.162c0.084-0.012,0.156-0.103,0.234-0.157c-0.091-0.031-0.186-0.098-0.271-0.087
			c-0.773,0.098-1.545,0.2-2.314,0.319c-0.581,0.089-1.211-0.15-1.746,0.277c-0.076,0.061-0.25,0.032-0.367,0.001
			c-0.411-0.107-0.806-0.241-1.206,0.069c-0.105,0.081-0.313,0.023-0.471,0.045c-0.258,0.037-0.54,0.034-0.766,0.144
			c-0.508,0.247-0.983,0.443-1.495,0.014c-0.063-0.053-0.266-0.029-0.33,0.035c-0.069,0.068-0.089,0.236-0.058,0.339
			C20.956,13.964,21.084,14.022,21.127,14.058z M20.9,4.928c-0.001-0.006-0.002-0.013-0.003-0.019
			c-0.319,0.037-0.638,0.072-0.956,0.113c-0.206,0.027-0.456-0.001-0.402,0.346c0.047,0.305,0.103,0.569,0.514,0.511
			c0.53-0.074,1.064-0.127,1.595-0.194c0.189-0.024,0.424,0.111,0.225-0.336c-0.172-0.387-0.344-0.418-0.65-0.42
			C21.114,4.927,21.007,4.928,20.9,4.928z"/>
		<path fill="#C2C2C2" d="M21.804,19.135c0.058-0.539,0.239-0.825,0.576-1.022c0.11-0.064,0.189-0.18,0.282-0.272
			c-0.126-0.019-0.251-0.047-0.378-0.055c-0.099-0.006-0.199,0.013-0.298,0.021c0.01-0.12-0.026-0.288,0.039-0.35
			c0.292-0.278,0.581-0.587,0.932-0.768c0.332-0.172,0.652-0.032,0.826,0.357c0.307,0.686,0.646,1.359,0.948,2.047
			c0.049,0.111-0.023,0.275-0.039,0.415c-0.163-0.056-0.326-0.112-0.487-0.171c-0.012-0.004-0.015-0.031-0.024-0.047
			c-0.074-0.131-0.148-0.262-0.222-0.393c0.022,0.137,0.07,0.276,0.057,0.41c-0.012,0.12-0.092,0.232-0.142,0.348
			c-0.117-0.078-0.285-0.131-0.339-0.24c-0.108-0.22-0.154-0.471-0.226-0.71c0.029,0.24,0.074,0.48,0.079,0.721
			c0.002,0.105-0.069,0.294-0.123,0.3c-0.113,0.012-0.237-0.069-0.354-0.117c-0.027-0.011-0.045-0.045-0.067-0.068
			c-0.083,0.395-0.365,0.328-0.563,0.173C22.061,19.541,21.914,19.275,21.804,19.135z"/>
		<path fill="#C2C2C2" d="M27.816,2.082c-0.575,0.041-0.182,0.296-0.175,0.486c0.002,0.047-0.239,0.073-0.289,0.157
			c-0.185,0.307-0.193-0.06-0.237-0.052c-0.381,0.071-0.264-0.453-0.565-0.457c0.042-0.1,0.147-0.243,0.114-0.292
			c-0.194-0.288,0.122-0.281,0.183-0.409c0.186-0.385,0.199-0.156,0.282,0.028c0.014,0.031,0.14,0.053,0.175,0.027
			c0.13-0.098,0.202-0.161,0.209,0.082c0.003,0.095,0.11,0.189,0.172,0.28C27.712,1.971,27.748,2.004,27.816,2.082z"/>
		<path fill="#C2C2C2" d="M20.519,3.118c-0.064,0.122-0.102,0.312-0.2,0.351c-0.169,0.068,0.079-0.497-0.314-0.254
			c-0.041,0.025-0.145,0.017-0.174-0.015c-0.237-0.268-0.013-0.655-0.232-0.933c0.045-0.031,0.109-0.098,0.133-0.086
			c0.176,0.086,0.268,0.049,0.291-0.152C20.026,2.01,20.096,2,20.135,1.985c-0.028,0.364,0.378,0.088,0.446,0.302
			c0.024,0.076,0,0.208,0.041,0.229c0.171,0.088,0.525,0.121,0.035,0.289c-0.004,0.001,0.039,0.149,0.067,0.226
			c0.017,0.047,0.047,0.09,0.071,0.135c-0.059,0.012-0.119,0.024-0.178,0.036C20.584,3.175,20.551,3.147,20.519,3.118z"/>
	</g>
</g>
</svg>
