<?xml version="1.0" encoding="utf-8"?>
<!-- Generator: Adobe Illustrator 17.0.0, SVG Export Plug-In . SVG Version: 6.00 Build 0)  -->
<!DOCTYPE svg PUBLIC "-//W3C//DTD SVG 1.1//EN" "http://www.w3.org/Graphics/SVG/1.1/DTD/svg11.dtd">
<svg version="1.1" id="Layer_1" xmlns="http://www.w3.org/2000/svg" xmlns:xlink="http://www.w3.org/1999/xlink" x="0px" y="0px"
	 width="49.056px" height="49.366px" viewBox="0 0 49.056 49.366" enable-background="new 0 0 49.056 49.366" xml:space="preserve">
<path id="facebook" fill="#BDC3C7" d="M-23.714-92.183H-67.23c-1.716,0-3.108,1.393-3.108,3.108v43.516
	c0,1.716,1.392,3.108,3.108,3.108h23.312V-61.1h-6.217v-7.771h6.217v-4.662c0-6.401,3.613-10.879,9.325-10.879
	c2.735,0,4.662,0,6.217,0v7.771h-3.108c-3.105,0-4.662,1.554-4.662,4.662v3.108h7.771l-1.554,7.771h-6.217v18.65h12.433
	c1.716,0,3.108-1.392,3.108-3.108v-43.516C-20.606-90.79-21.998-92.183-23.714-92.183z"/>
<path id="linkedin" fill="#BDC3C7" d="M45.429,0H3.624C1.623,0,0,1.584,0,3.536v42.295c0,1.951,1.623,3.535,3.624,3.535h41.805
	c2.004,0,3.627-1.585,3.627-3.535V3.536C49.056,1.583,47.432,0,45.429,0z M14.869,41.326H7.46V19.035h7.409V41.326z M11.165,15.99
	h-0.05c-2.485,0-4.093-1.712-4.093-3.851c0-2.187,1.658-3.851,4.191-3.851c2.535,0,4.094,1.664,4.144,3.851
	C15.357,14.278,13.748,15.99,11.165,15.99z M41.587,41.326h-7.409V29.398c0-2.995-1.072-5.04-3.753-5.04
	c-2.047,0-3.265,1.379-3.802,2.711c-0.196,0.475-0.243,1.14-0.243,1.807v12.449H18.97c0,0,0.097-20.202,0-22.291h7.409v3.155
	c0.985-1.519,2.745-3.681,6.679-3.681c4.874,0,8.53,3.187,8.53,10.034L41.587,41.326L41.587,41.326z"/>
<path id="twitter" fill="#BDC3C7" d="M241.426,6.05c-2.195,0.975-4.551,1.633-7.029,1.926c2.526-1.514,4.467-3.912,5.383-6.768
	c-2.366,1.4-4.984,2.422-7.771,2.968c-2.234-2.377-5.415-3.863-8.937-3.863c-6.759,0-12.235,5.478-12.235,12.237
	c0,0.958,0.106,1.894,0.315,2.789c-10.171-0.511-19.188-5.383-25.226-12.787c-1.052,1.809-1.656,3.91-1.656,6.153
	c0,4.247,2.161,7.992,5.443,10.188c-2.004-0.065-3.891-0.613-5.541-1.531c-0.002,0.05-0.002,0.104-0.002,0.153
	c0,5.931,4.218,10.878,9.817,12.002c-1.025,0.278-2.107,0.429-3.224,0.429c-0.791,0-1.555-0.076-2.301-0.218
	c1.555,4.859,6.077,8.398,11.43,8.499c-4.186,3.282-9.463,5.241-15.196,5.241c-0.988,0-1.963-0.058-2.92-0.172
	c5.415,3.468,11.847,5.495,18.759,5.495c22.509,0,34.821-18.647,34.821-34.821c0-0.53-0.015-1.059-0.037-1.585
	C237.71,10.661,239.783,8.507,241.426,6.05z"/>
</svg>
