<?xml version="1.0" encoding="utf-8"?>
<!-- Generator: Adobe Illustrator 17.0.0, SVG Export Plug-In . SVG Version: 6.00 Build 0)  -->
<!DOCTYPE svg PUBLIC "-//W3C//DTD SVG 1.1//EN" "http://www.w3.org/Graphics/SVG/1.1/DTD/svg11.dtd">
<svg version="1.1" id="Layer_1" xmlns="http://www.w3.org/2000/svg" xmlns:xlink="http://www.w3.org/1999/xlink" x="0px" y="0px"
	 width="59.651px" height="48.479px" viewBox="0 0 59.651 48.479" enable-background="new 0 0 59.651 48.479" xml:space="preserve">
<path id="facebook" fill="#BDC3C7" d="M-21.459-92.627h-43.516c-1.716,0-3.108,1.393-3.108,3.108v43.516
	c0,1.716,1.392,3.108,3.108,3.108h23.312v-18.65h-6.217v-7.771h6.217v-4.662c0-6.401,3.613-10.879,9.325-10.879
	c2.735,0,4.662,0,6.217,0v7.771h-3.108c-3.105,0-4.662,1.554-4.662,4.662v3.108h7.771l-1.554,7.771h-6.217v18.65h12.433
	c1.716,0,3.108-1.393,3.108-3.108v-43.516C-18.351-91.234-19.743-92.627-21.459-92.627z"/>
<path id="linkedin" fill="#BDC3C7" d="M58.684-81.444H16.879c-2.001,0-3.624,1.584-3.624,3.536v42.295
	c0,1.951,1.623,3.535,3.624,3.535h41.805c2.004,0,3.627-1.585,3.627-3.535v-42.295C62.311-79.861,60.687-81.444,58.684-81.444z
	 M28.124-40.118h-7.409v-22.291h7.409V-40.118z M24.42-65.454h-0.05c-2.485,0-4.093-1.712-4.093-3.851
	c0-2.187,1.658-3.851,4.191-3.851c2.535,0,4.094,1.664,4.144,3.851C28.613-67.166,27.003-65.454,24.42-65.454z M54.842-40.118
	h-7.409v-11.928c0-2.995-1.072-5.04-3.753-5.04c-2.047,0-3.265,1.379-3.802,2.711c-0.196,0.475-0.243,1.14-0.243,1.807v12.449
	h-7.409c0,0,0.097-20.202,0-22.291h7.409v3.155c0.985-1.519,2.745-3.681,6.679-3.681c4.874,0,8.53,3.187,8.53,10.034L54.842-40.118
	L54.842-40.118z"/>
<path id="twitter" fill="#BDC3C7" d="M59.651,5.737c-2.195,0.975-4.551,1.633-7.029,1.926c2.526-1.514,4.467-3.912,5.383-6.768
	c-2.366,1.4-4.984,2.422-7.771,2.968C47.999,1.486,44.818,0,41.296,0c-6.759,0-12.235,5.478-12.235,12.237
	c0,0.958,0.106,1.894,0.315,2.789C19.205,14.516,10.188,9.644,4.151,2.239c-1.052,1.809-1.656,3.91-1.656,6.153
	c0,4.247,2.161,7.992,5.443,10.188c-2.004-0.065-3.891-0.613-5.541-1.531c-0.002,0.05-0.002,0.104-0.002,0.153
	c0,5.931,4.218,10.878,9.817,12.002c-1.026,0.278-2.107,0.429-3.224,0.429c-0.791,0-1.555-0.076-2.301-0.218
	c1.555,4.859,6.077,8.398,11.43,8.499c-4.186,3.282-9.463,5.241-15.196,5.241c-0.988,0-1.963-0.058-2.92-0.172
	c5.415,3.468,11.847,5.495,18.759,5.495c22.509,0,34.821-18.647,34.821-34.821c0-0.53-0.015-1.059-0.037-1.585
	C55.935,10.348,58.008,8.195,59.651,5.737z"/>
</svg>
